#N canvas 3964 97 1440 983 10;
#X text 142 19 start;
#X obj 264 298 clip~ -1 1;
#X obj 277 266 *~ 3.6659;
#X obj 264 381 *~ 0.354;
#X obj 264 410 +~ 0.645;
#X obj 130 377 *~ 1.0001;
#X obj 162 503 *~;
#X floatatom 288 146 5 0 0 0 - - - 0;
#X obj 277 192 phasor~ 1000;
#X obj 281 222 -~ 0.5;
#X obj 288 113 route distortion-500-100-2000-1000;
#X obj 162 551 *~ 1.0002;
#X obj 53 60 inlet~;
#X obj 117 61 inlet~;
#X obj 169 61 inlet;
#X obj 86 637 outlet~;
#X obj 172 635 outlet~;
#X connect 1 0 3 0;
#X connect 2 0 1 0;
#X connect 3 0 4 0;
#X connect 4 0 6 1;
#X connect 5 0 6 0;
#X connect 6 0 11 0;
#X connect 7 0 8 0;
#X connect 8 0 9 0;
#X connect 9 0 2 0;
#X connect 10 0 7 0;
#X connect 11 0 15 0;
#X connect 11 0 16 0;
#X connect 12 0 5 0;
#X connect 13 0 5 0;
#X connect 14 0 10 0;
