#N canvas 1920 69 1846 984 10;
#X text 127 72 this is the delay;
#X obj 302 295 *~ 1.0001;
#X obj 358 437 *~ 0.8;
#X obj 673 436 *~ 0.5;
#X obj 517 429 *~ 0.7;
#X obj 331 613 *~ 0.7;
#X obj 322 384 delwrite~ chamber_d0 50;
#X obj 355 488 delread~ chamber_d0 25;
#X obj 511 481 delread~ chamber_d1 50;
#X obj 475 373 delwrite~ chamber_d1 100;
#X obj 655 374 delwrite~ chamber_d2 150;
#X obj 669 478 delread~ chamber_d2 100;
#X obj 320 208 inlet~;
#X obj 371 209 inlet~;
#X obj 485 207 inlet;
#X obj 302 703 outlet~;
#X obj 363 702 outlet~;
#X connect 1 0 5 0;
#X connect 1 0 9 0;
#X connect 1 0 6 0;
#X connect 1 0 10 0;
#X connect 2 0 6 0;
#X connect 3 0 10 0;
#X connect 4 0 9 0;
#X connect 5 0 15 0;
#X connect 5 0 16 0;
#X connect 7 0 2 0;
#X connect 7 0 5 0;
#X connect 8 0 4 0;
#X connect 8 0 5 0;
#X connect 11 0 3 0;
#X connect 11 0 5 0;
#X connect 12 0 1 0;
#X connect 13 0 1 0;
