#N canvas 0 309 1846 984 10;
#X text 127 72 this is the delay;
#X obj 150 155 *~ 1.0001;
#X obj 335 486 *~ 0.5;
#X obj 205 804 *~ 1.0002;
#X obj 218 250 delwrite~ d 600;
#X obj 202 651 delread~ d 300;
#X obj 195 118 inlet~;
#X obj 283 120 inlet~;
#X obj 383 130 inlet;
#X obj 232 869 outlet~;
#X obj 320 870 outlet~;
#X connect 1 0 3 0;
#X connect 1 0 4 0;
#X connect 2 0 4 0;
#X connect 3 0 9 0;
#X connect 3 0 10 0;
#X connect 5 0 2 0;
#X connect 5 0 3 0;
#X connect 6 0 1 0;
#X connect 7 0 1 0;
