#N canvas 72 96 1848 984 10;
#X obj 313 310 *~ 0.5;
#X obj 312 287 delwrite~ d 600;
#X obj 311 332 delread~ d 300;
#X obj 209 221 inlet~;
#X obj 208 390 outlet~, f 8;
#X obj 269 221 inlet~;
#X obj 316 221 inlet;
#X text 199 181 Left \, right \, and network input;
#X obj 268 390 outlet~, f 8;
#X obj 429 190 route __write_time-100-50-1000-600;
#X connect 0 0 1 0;
#X connect 2 0 0 0;
#X connect 2 0 4 0;
#X connect 2 0 8 0;
#X connect 3 0 1 0;
#X connect 3 0 4 0;
#X connect 3 0 8 0;
#X connect 5 0 1 0;
#X connect 5 0 4 0;
#X connect 5 0 8 0;
