#N canvas 476 684 450 300 12;
#N canvas 1042 209 450 300 (subpatch) 1;
#X obj 140 142 dac~;
#X obj 141 88 adc~;
#X floatatom 214 86 5 0 0 0 - - -;
#X floatatom 214 144 5 0 0 0 - - -;
#X obj 80 142 outlet~;
#X obj 80 89 inlet~;
#N canvas 859 353 450 300 (subpatch) 0;
#X obj 148 46 inlet~;
#X obj 147 73 outlet~;
#X connect 0 0 1 0;
#X restore 320 113 pd;
#N canvas 1094 209 450 300 this-is-my-name 0;
#X obj 165 130 *~ 1;
#X obj 166 100 inlet~;
#X obj 166 163 outlet~;
#X obj 251 96 inlet;
#X obj 251 159 outlet;
#X obj 251 128 + 1;
#X connect 0 0 2 0;
#X connect 1 0 0 0;
#X connect 3 0 5 0;
#X connect 5 0 4 0;
#X restore 279 228 pd this-is-my-name;
#N canvas 72 96 450 300 (subpatch) 0;
#X obj 201 69 inlet~;
#X obj 200 95 outlet~;
#X connect 0 0 1 0;
#X restore 322 181 pd;
#X obj 84 37 hsl 128 15 1.9999 10.999 0 0 send-symbol recv-symbol slider
-2 -8 0 10 -262144 -1 -1 0 1;
#X obj 242 28 bng 15 250 50 0 empty empty Labeled-bang 17 7 0 10 -262144
-1 -1;
#X obj 242 48 tgl 15 0 empty empty Labeled-toggle 17 7 0 10 -262144
-1 -1 0 1;
#X obj 163 209 r recv;
#X obj 163 235 s send;
#X connect 6 0 8 0;
#X connect 12 0 13 0;
#X restore 322 181 pd;
