#N canvas 72 129 1233 798 12;
#X obj 294 398 >;
#X obj 293 438 change;
#X obj 291 475 sel 1;
#X obj 296 512 t b b;
#X obj 296 557 del 6;
#X obj 295 601 pack 1 200;
#X obj 274 643 line~;
#X msg 423 602 0 5;
#X obj 111 147 delwrite~ violin 10;
#X obj 114 193 delread~ violin 10;
#X obj 283 355 env~ 256 128;
#X obj 263 678 *~;
#X obj 304 695 *~ 3;
#X msg 539 356 40;
#X msg 705 406 300;
#X obj 607 227 loadbang;
#X obj 108 62 inlet~;
#X obj 290 730 outlet~;
#X obj 208 62 inlet;
#X obj 159 62 inlet~;
#X text 110 28 Left Right and network input;
#X obj 351 731 outlet~;
#X connect 0 0 1 0;
#X connect 1 0 2 0;
#X connect 2 0 3 0;
#X connect 3 0 4 0;
#X connect 3 1 7 0;
#X connect 4 0 5 0;
#X connect 5 0 6 0;
#X connect 6 0 11 1;
#X connect 7 0 6 0;
#X connect 9 0 11 0;
#X connect 10 0 0 0;
#X connect 11 0 12 0;
#X connect 12 0 17 0;
#X connect 12 0 21 0;
#X connect 13 0 0 1;
#X connect 14 0 5 1;
#X connect 15 0 13 0;
#X connect 15 0 14 0;
#X connect 16 0 8 0;
#X connect 16 0 10 0;
#X connect 19 0 8 0;
#X connect 19 0 10 0;
